<?xml version="1.0" encoding="UTF-8"?>
<svg width="21px" height="19px" viewBox="0 0 21 19" version="1.1" xmlns="http://www.w3.org/2000/svg" xmlns:xlink="http://www.w3.org/1999/xlink">
    <!-- Generator: Sketch 41.1 (35376) - http://www.bohemiancoding.com/sketch -->
    <title>add-media</title>
    <desc>Created with Sketch.</desc>
    <defs></defs>
    <g id="buffer-web" stroke="none" stroke-width="1" fill="none" fill-rule="evenodd">
        <g id="add-media" fill="#000000">
            <g id="icon-add-media">
                <ellipse id="sun" cx="4.5" cy="9.5" rx="1.5" ry="1.5"></ellipse>
                <g id="mountains" transform="translate(0.000000, 5.000000)">
                    <path d="M9.01894482,1.44631989e-14 L1.99406028,3.33262744e-16 C0.894513756,-1.87837818e-15 0,0.898053512 0,2.00585866 L0,11.9941413 C0,13.1029399 0.892771196,14 1.99406028,14 L14.0059397,14 C15.1054862,14 16,13.1019465 16,11.9941413 L16,6.98105518 C15.8349792,6.99360854 15.668236,7 15.5,7 C14.9837308,7 14.4815193,6.93981131 14,6.82606816 L14,11.4903505 C14,11.7718221 13.7709994,12 13.4996527,12 L2.50034732,12 C2.22401312,12 2,11.7723472 2,11.4903505 L2,2.50964952 C2,2.22817786 2.22900057,2 2.50034732,2 L9.17393184,2 C9.06018869,1.51848065 9,1.01626924 9,0.5 C9,0.331764003 9.00639146,0.165020812 9.01894482,-2.88880031e-13 Z" id="Combined-Shape"></path>
                    <path d="M7.06880734,9.74311927 L6.1639905,8.73776722 C5.79525757,8.32806396 5.16790521,8.30190435 4.75824553,8.67432225 L0.741754472,12.3256778 C0.327579021,12.7022009 0.400573099,13.2002865 0.894705057,13.4473525 L2,14 L5,13.625 L5,14 L14,14 L15.2892435,12.7107565 C15.6875,12.3125 15.6980573,11.6706079 15.325592,11.2642822 L11.174408,6.73571777 C10.8035382,6.33113256 10.1980573,6.32939207 9.82559204,6.73571777 L7.06880734,9.74311927 Z" id="Combined-Shape"></path>
                </g>
                <path d="M16,5 L16,3.49769878 C16,3.21484375 15.7761424,3 15.5,3 C15.2319336,3 15,3.22282734 15,3.49769878 L15,5 L13.4976988,5 C13.2148438,5 13,5.22385763 13,5.5 C13,5.76806641 13.2228273,6 13.4976988,6 L15,6 L15,7.50230122 C15,7.78515625 15.2238576,8 15.5,8 C15.7680664,8 16,7.77717266 16,7.50230122 L16,6 L17.5023012,6 C17.7851562,6 18,5.77614237 18,5.5 C18,5.23193359 17.7771727,5 17.5023012,5 L16,5 Z M15.5,11 C18.5375661,11 21,8.53756612 21,5.5 C21,2.46243388 18.5375661,0 15.5,0 C12.4624339,0 10,2.46243388 10,5.5 C10,8.53756612 12.4624339,11 15.5,11 Z" id="Combined-Shape"></path>
            </g>
        </g>
    </g>
</svg>