<?xml version="1.0" encoding="UTF-8" standalone="no"?>
<svg width="16px" height="16px" viewBox="0 0 16 16" version="1.1" xmlns="http://www.w3.org/2000/svg" xmlns:xlink="http://www.w3.org/1999/xlink">
    <!-- Generator: Sketch 3.6.1 (26313) - http://www.bohemiancoding.com/sketch -->
    <title>calendar</title>
    <desc>Created with Sketch.</desc>
    <defs></defs>
    <g id="buffer-web" stroke="none" stroke-width="1" fill="none" fill-rule="evenodd">
        <g id="calendar" fill="#000000">
            <path d="M0,1.99406028 C0,0.892771196 0.894513756,0 1.99406028,0 L14.0059397,0 C15.1072288,0 16,0.894513756 16,1.99406028 L16,14.0059397 C16,15.1072288 15.1054862,16 14.0059397,16 L1.99406028,16 C0.892771196,16 0,15.1054862 0,14.0059397 L0,1.99406028 Z M2,4 L14,4 L14,13.4903505 C14,13.7718221 13.7709994,14 13.4996527,14 L2.50034732,14 C2.22401312,14 2,13.7723472 2,13.4903505 L2,4 Z" id="icon"></path>
            <path d="M9.5,11.7421875 C9.5,11.8845734 9.39139498,12 9.25230595,12 L7.72767451,12 C7.59087687,12 7.48049088,11.8846016 7.48108719,11.7497821 L7.49767263,8 L6.75175493,8 C6.61271452,8 6.5,7.89247131 6.5,7.75476074 L6.5,6.24523926 C6.5,6.10979736 6.61394024,6 6.75577831,6 L9.24422169,6 C9.38548415,6 9.5,6.10414124 9.5,6.2578125 L9.5,11.7421875 Z" id="1"></path>
        </g>
    </g>
</svg>