<?xml version="1.0" encoding="UTF-8" standalone="no"?>
<svg width="16px" height="16px" viewBox="0 0 16 16" version="1.1" xmlns="http://www.w3.org/2000/svg" xmlns:xlink="http://www.w3.org/1999/xlink">
    <!-- Generator: Sketch 39.1 (31720) - http://www.bohemiancoding.com/sketch -->
    <title>calendar</title>
    <desc>Created with Sketch.</desc>
    <defs></defs>
    <g id="buffer-web" stroke="none" stroke-width="1" fill="none" fill-rule="evenodd">
        <g id="calendar" fill="#000000">
            <g id="icon-calendar">
                <path d="M0,4.00585866 C0,2.89805351 0.90009892,2 2.00104344,2 L3,2 L3,1 C3,0.44771525 3.44386482,-4.3298698e-15 4,-4.3298698e-15 C4.55228475,-4.3298698e-15 5,0.443864822 5,1 L5,2 L11,2 L11,1 C11,0.44771525 11.4438648,-4.3298698e-15 12,-4.3298698e-15 C12.5522847,-4.3298698e-15 13,0.443864822 13,1 L13,2 L13.9989566,2 C15.1041023,2 16,2.89706013 16,4.00585866 L16,13.9941413 C16,15.1019465 15.1054862,16 14.0059397,16 L1.99406028,16 C0.892771196,16 0,15.1029399 0,13.9941413 L0,4.00585866 Z M2,6.2481966 C2,6.1111214 2.10374069,6 2.25063705,6 L13.7493629,6 C13.887786,6 14,6.11309052 14,6.2481966 L14,13.4995642 C14,13.7759472 13.7709994,14 13.4996527,14 L2.50034732,14 C2.22401312,14 2,13.7692032 2,13.4995642 L2,6.2481966 Z"></path>
                <path d="M9.72987013,12.5 L6.05541126,12.5 L6.05541126,11.6233985 L7.29177489,10.4062711 C7.64502341,10.0466379 7.87590133,9.80107955 7.98441558,9.66958867 C8.09292984,9.53809779 8.16854235,9.42515219 8.21125541,9.33074848 C8.25396847,9.23634477 8.27532468,9.13744713 8.27532468,9.0340526 C8.27532468,8.90593328 8.23261226,8.80478796 8.14718615,8.73061362 C8.06176003,8.65643928 7.94170352,8.61935266 7.78701299,8.61935266 C7.62770483,8.61935266 7.46666748,8.66374422 7.3038961,8.75252866 C7.14112473,8.8413131 6.95699958,8.97224009 6.75151515,9.14531355 L6,8.28894134 C6.26089597,8.06192289 6.48022999,7.89952847 6.65800866,7.8017532 C6.83578732,7.70397793 7.02914758,7.62924278 7.23809524,7.57754552 C7.44704289,7.52584825 7.68196118,7.5 7.94285714,7.5 C8.27070871,7.5 8.56334648,7.55619184 8.82077922,7.66857721 C9.07821197,7.78096258 9.27792137,7.94110932 9.41991342,8.14902225 C9.56190547,8.35693518 9.63290043,8.59013132 9.63290043,8.84861767 C9.63290043,9.0419205 9.60808106,9.22061055 9.55844156,9.38469319 C9.50880206,9.54877583 9.43203515,9.71004641 9.32813853,9.86850978 C9.2242419,10.0269731 9.08629235,10.1938629 8.91428571,10.3691841 C8.74227908,10.5445053 8.37576038,10.877161 7.81471861,11.3671612 L7.81471861,11.4008766 L9.72987013,11.4008766 L9.72987013,12.5 Z" id="2"></path>
            </g>
        </g>
    </g>
</svg>