<svg width="20" height="20" viewBox="0 0 20 20" fill="none" xmlns="http://www.w3.org/2000/svg">
<path d="M8.33333 7C8.33333 6.05323 9.07952 5.28571 10 5.28571C10.9205 5.28571 11.6667 6.05323 11.6667 7C11.6667 7.94677 10.9205 8.71429 10 8.71429C9.07952 8.71429 8.33333 7.94677 8.33333 7Z" fill="#2C4BFF"/>
<path d="M6.94443 10C6.48419 10 6.11109 10.3838 6.11109 10.8571C6.11109 11.3305 6.48419 11.7143 6.94443 11.7143H13.0555C13.5158 11.7143 13.8889 11.3305 13.8889 10.8571C13.8889 10.3838 13.5158 10 13.0555 10H6.94443Z" fill="#2C4BFF"/>
<path d="M6.11109 13.4286C6.11109 12.9552 6.48419 12.5714 6.94443 12.5714H13.0555C13.5158 12.5714 13.8889 12.9552 13.8889 13.4286C13.8889 13.902 13.5158 14.2857 13.0555 14.2857H6.94443C6.48419 14.2857 6.11109 13.902 6.11109 13.4286Z" fill="#2C4BFF"/>
<path fill-rule="evenodd" clip-rule="evenodd" d="M10 20C15.5228 20 20 15.5228 20 10C20 4.47715 15.5228 0 10 0C4.47715 0 0 4.47715 0 10C0 15.5228 4.47715 20 10 20ZM5 4.85714C5 4.38376 5.3731 4 5.83333 4H14.1667C14.6269 4 15 4.38376 15 4.85714V15.1429C15 15.6162 14.6269 16 14.1667 16H5.83333C5.3731 16 5 15.6162 5 15.1429V4.85714Z" fill="#2C4BFF"/>
</svg>
