<svg width="20" height="20" viewBox="0 0 20 20" fill="none" xmlns="http://www.w3.org/2000/svg">
<path d="M14.2 13.198C14.2 13.6 14.02 14.032 13.738 14.32C13.426 14.626 13 14.8 12.52 14.8H12.508C12.01 14.8 11.524 14.596 11.176 14.254C10.834 13.924 10.648 13.48 10.648 13C10.648 12.526 10.846 12.07 11.2 11.722C11.542 11.386 11.998 11.2 12.484 11.2H12.49C12.958 11.2 13.402 11.374 13.738 11.686L13.834 11.77L13.33 12.28L13.246 12.202C12.814 11.8 12.13 11.8 11.716 12.22C11.29 12.652 11.29 13.342 11.704 13.768C11.92 13.978 12.214 14.104 12.514 14.104C12.802 14.104 13.072 13.996 13.27 13.798C13.372 13.69 13.42 13.558 13.456 13.426H12.37V12.724H14.152L14.17 12.82C14.2 12.952 14.2 13.078 14.2 13.198Z" fill="#4A7DE2"/>
<path fill-rule="evenodd" clip-rule="evenodd" d="M10 20C15.5228 20 20 15.5228 20 10C20 4.47715 15.5228 0 10 0C4.47715 0 0 4.47715 0 10C0 15.5228 4.47715 20 10 20ZM14.5 9.4C15.328 9.4 16 8.722 16 7.9L15.166 4.648C15.166 4.648 14.992 4 14.38 4H5.62C5.008 4 4.834 4.648 4.834 4.648L4 7.9C4 8.722 4.672 9.4 5.5 9.4C6.328 9.4 7 8.722 7 7.9C7 8.722 7.672 9.4 8.5 9.4C9.328 9.4 10 8.722 10 7.9C10 8.722 10.672 9.4 11.5 9.4C12.328 9.4 13 8.722 13 7.9C13 8.722 13.672 9.4 14.5 9.4ZM15.4 14.8V10.12C15.124 10.234 14.818 10.3 14.5 10.3C13.936 10.3 13.408 10.102 13 9.772C12.592 10.102 12.07 10.3 11.5 10.3C10.936 10.3 10.414 10.102 10 9.772C9.592 10.102 9.07 10.3 8.5 10.3C7.936 10.3 7.414 10.102 7 9.772C6.592 10.102 6.07 10.3 5.5 10.3C5.182 10.3 4.876 10.234 4.6 10.12V14.8C4.6 15.46 5.14 16 5.8 16H14.2C14.86 16 15.4 15.46 15.4 14.8Z" fill="#4A7DE2"/>
</svg>
