<svg width="20" height="20" viewBox="0 0 20 20" fill="none" xmlns="http://www.w3.org/2000/svg">
<path d="M13.8428 8.64174V11.7937H12.504V8.73439C12.504 8.08948 12.2131 7.76214 11.6313 7.76214C10.9879 7.76214 10.6655 8.15044 10.6655 8.91826V10.5928H9.33462V8.91826C9.33462 8.15044 9.01211 7.76214 8.36876 7.76214C7.78689 7.76214 7.49599 8.08948 7.49599 8.73439V11.7937H6.15724V8.64174C6.15724 7.99754 6.33308 7.48562 6.6863 7.10689C7.05053 6.72816 7.52753 6.534 8.11966 6.534C8.80473 6.534 9.32353 6.77962 9.66655 7.27091L10 7.79233L10.3335 7.27091C10.6765 6.77962 11.1953 6.534 11.8804 6.534C12.4725 6.534 12.9495 6.72816 13.3138 7.10689C13.6669 7.48562 13.8428 7.99754 13.8428 8.64174Z" fill="#6364FF"/>
<path fill-rule="evenodd" clip-rule="evenodd" d="M10 20C15.5228 20 20 15.5228 20 10C20 4.47715 15.5228 0 10 0C4.47715 0 0 4.47715 0 10C0 15.5228 4.47715 20 10 20ZM15.7445 11.6939C15.5681 12.5404 14.1647 13.4668 12.5527 13.6463C11.7122 13.7399 10.8846 13.8259 10.0022 13.7881C8.55895 13.7264 7.42017 13.4668 7.42017 13.4668C7.42017 13.5978 7.42883 13.7226 7.44616 13.8393C7.63378 15.1678 8.85845 15.2474 10.0185 15.2845C11.1894 15.3219 12.232 15.0153 12.232 15.0153L12.2801 16.0026C12.2801 16.0026 11.4611 16.4129 10.0022 16.4883C9.19766 16.5296 8.19874 16.4694 7.03528 16.1822C4.51193 15.5592 4.07797 13.0502 4.01157 10.5045C3.99669 9.94872 3.99949 9.41629 4.00202 8.93639C4.00293 8.76362 4.0038 8.59758 4.0038 8.43979C4.0038 5.83663 5.83231 5.0736 5.83231 5.0736C6.75429 4.67863 8.33632 4.51254 9.98102 4.5H10.0214C11.6661 4.51254 13.2492 4.67863 14.1711 5.0736C14.1711 5.0736 15.9995 5.83663 15.9995 8.43979C15.9995 8.43979 16.0225 10.3604 15.7445 11.6939Z" fill="#6364FF"/>
</svg>
