<svg width="20" height="20" viewBox="0 0 20 20" fill="none" xmlns="http://www.w3.org/2000/svg">
<path fill-rule="evenodd" clip-rule="evenodd" d="M10 20C15.5228 20 20 15.5228 20 10C20 4.47715 15.5228 0 10 0C4.47715 0 0 4.47715 0 10C0 15.5228 4.47715 20 10 20ZM15 6.82609C13.3942 6.71809 12.4706 5.70286 12.2782 4V4.0036H10.3506V11.1714C10.6409 14.9984 7.14948 14.4187 6.8801 12.4603C6.74016 11.4378 7.24394 10.8582 8.13254 10.5486C8.42991 10.4442 8.75527 10.365 9.05963 10.3146V8.29494C5.0644 8.44254 4.30174 12.1255 5.54719 14.2243C7.48533 17.486 12.3062 16.064 12.3062 11.5134V7.93133C13.2543 8.52175 14.0694 8.83496 15 8.74135V6.82609Z" fill="black"/>
</svg>
