<?xml version="1.0" encoding="UTF-8" standalone="no"?>
<svg width="16px" height="16px" viewBox="0 0 16 16" version="1.1" xmlns="http://www.w3.org/2000/svg" xmlns:xlink="http://www.w3.org/1999/xlink">
    <!-- Generator: Sketch 3.6.1 (26313) - http://www.bohemiancoding.com/sketch -->
    <title>circle-plus</title>
    <desc>Created with Sketch.</desc>
    <defs></defs>
    <g id="buffer-web" stroke="none" stroke-width="1" fill="none" fill-rule="evenodd">
        <g id="circle-plus" fill="#000000">
            <g id="icon-circle-plus">
                <path d="M8,16 C12.418278,16 16,12.418278 16,8 C16,3.581722 12.418278,0 8,0 C3.581722,0 0,3.581722 0,8 C0,12.418278 3.581722,16 8,16 Z M9,7 L9,3.99539757 C9,3.4556644 8.55228475,3 8,3 C7.44386482,3 7,3.44565467 7,3.99539757 L7,7 L3.99539757,7 C3.4556644,7 3,7.44771525 3,8 C3,8.55613518 3.44565467,9 3.99539757,9 L7,9 L7,12.0046024 C7,12.5443356 7.44771525,13 8,13 C8.55613518,13 9,12.5543453 9,12.0046024 L9,9 L12.0046024,9 C12.5443356,9 13,8.55228475 13,8 C13,7.44386482 12.5543453,7 12.0046024,7 L9,7 Z"></path>
            </g>
        </g>
    </g>
</svg>