<?xml version="1.0" encoding="UTF-8" standalone="no"?>
<svg width="16px" height="16px" viewBox="0 0 16 16" version="1.1" xmlns="http://www.w3.org/2000/svg" xmlns:xlink="http://www.w3.org/1999/xlink">
    <!-- Generator: Sketch 3.6.1 (26313) - http://www.bohemiancoding.com/sketch -->
    <title>circle-checkmark</title>
    <desc>Created with Sketch.</desc>
    <defs></defs>
    <g id="buffer-web" stroke="none" stroke-width="1" fill="none" fill-rule="evenodd">
        <g id="circle-checkmark" fill="#000000">
            <path d="M8,15.976 C12.4050232,15.976 15.976,12.4050232 15.976,8 C15.976,3.59497684 12.4050232,0.024 8,0.024 C3.59497684,0.024 0.024,3.59497684 0.024,8 C0.024,12.4050232 3.59497684,15.976 8,15.976 Z M4.84201948,7.87755339 C5.23254378,7.4870291 5.86298609,7.48430644 6.25623305,7.87755339 L6.96333983,8.58466017 L9.79190308,5.75609692 C10.1823522,5.36564781 10.8127336,5.36298609 11.2059805,5.75623305 C11.5965048,6.14675734 11.6034584,6.7729687 11.2039092,7.17251796 L7.67251796,10.7039092 C7.28084969,11.0955774 6.64984179,11.0995893 6.24960824,10.6993557 L4.84864429,9.29839176 C4.45446122,8.90420869 4.44877253,8.27080035 4.84201948,7.87755339 Z" id="icon-circle-checkmark"></path>
        </g>
    </g>
</svg>