<?xml version="1.0" encoding="UTF-8" standalone="no"?>
<svg width="16px" height="16px" viewBox="0 0 16 16" version="1.1" xmlns="http://www.w3.org/2000/svg" xmlns:xlink="http://www.w3.org/1999/xlink">
    <!-- Generator: Sketch 39.1 (31720) - http://www.bohemiancoding.com/sketch -->
    <title>circle-linkedin</title>
    <desc>Created with Sketch.</desc>
    <defs></defs>
    <g id="buffer-web" stroke="none" stroke-width="1" fill="none" fill-rule="evenodd">
        <g id="circle-linkedin" fill="#000000">
            <path d="M0,8 C0,3.581722 3.59071231,0 8,0 C12.418278,0 16,3.59071231 16,8 C16,12.418278 12.4092877,16 8,16 C3.581722,16 0,12.4092877 0,8 Z M4.96185043,4 C5.49214111,4 5.92245896,4.43141524 5.92245896,4.962986 C5.92245896,5.49486781 5.49214111,5.92628305 4.96185043,5.92628305 C4.42938642,5.92628305 4,5.49486781 4,4.962986 C4,4.43141524 4.42938642,4 4.96185043,4 Z M4.13164125,6.6562986 L5.79112819,6.6562986 L5.79112819,12 L4.13164125,12 L4.13164125,6.6562986 Z M6.83090775,6.6562986 L8.41991695,6.6562986 L8.41991695,7.38693624 L8.44289207,7.38693624 C8.66395001,6.96671851 9.20479683,6.52379471 10.0110995,6.52379471 C11.6898358,6.52379471 12,7.63017107 12,9.06936236 L12,12 L10.3423759,12 L10.3423759,9.40124417 C10.3423759,8.78164852 10.3318198,7.9844479 9.48111926,7.9844479 C8.61831024,7.9844479 8.486669,8.65972006 8.486669,9.35707621 L8.486669,12 L6.83090775,12 L6.83090775,6.6562986 Z" id="icon-circle-linkedin"></path>
        </g>
    </g>
</svg>