<svg width="20" height="20" viewBox="0 0 20 20" fill="none" xmlns="http://www.w3.org/2000/svg">
<path d="M8.76067 8.27952L8.7612 11.4753L12.0031 9.88291L8.76067 8.27952Z" fill="#FF0000"/>
<path fill-rule="evenodd" clip-rule="evenodd" d="M10 20C15.5228 20 20 15.5228 20 10C20 4.47715 15.5228 0 10 0C4.47715 0 0 4.47715 0 10C0 15.5228 4.47715 20 10 20ZM15.4031 6.59677C15.7629 6.94204 15.8803 7.72585 15.8803 7.72585C15.8803 7.72585 16 8.64628 16 9.5667V10.4298C16 11.3501 15.8803 12.2705 15.8803 12.2705C15.8803 12.2705 15.7629 13.0543 15.4031 13.3996C14.9919 13.8079 14.5358 13.85 14.278 13.8737C14.2498 13.8763 14.2239 13.8787 14.2008 13.8813C12.5216 13.9963 10 14 10 14C10 14 6.88013 13.973 5.92 13.8856C5.87429 13.8775 5.81884 13.8712 5.75603 13.864C5.45188 13.8294 4.97522 13.7751 4.59693 13.3996C4.23707 13.0543 4.12 12.2705 4.12 12.2705C4.12 12.2705 4 11.3501 4 10.4298V9.5667C4 8.64628 4.12 7.72585 4.12 7.72585C4.12 7.72585 4.23707 6.94204 4.59693 6.59677C5.0083 6.18851 5.4643 6.14648 5.72201 6.12273C5.75022 6.12013 5.77606 6.11775 5.7992 6.11513C7.47853 6 9.99733 6 9.99733 6H10.0027C10.0027 6 12.5216 6 14.2008 6.11513C14.2239 6.11775 14.2498 6.12013 14.278 6.12273C14.5358 6.14649 14.992 6.18852 15.4031 6.59677Z" fill="#FF0000"/>
</svg>
