<?xml version="1.0" encoding="UTF-8"?>
<svg width="16px" height="16px" viewBox="0 0 16 16" version="1.1" xmlns="http://www.w3.org/2000/svg" xmlns:xlink="http://www.w3.org/1999/xlink">
    <!-- Generator: Sketch 41.2 (35397) - http://www.bohemiancoding.com/sketch -->
    <title>drag</title>
    <desc>Created with Sketch.</desc>
    <defs></defs>
    <g id="buffer-web" stroke="none" stroke-width="1" fill="none" fill-rule="evenodd">
        <g id="drag" fill="#343E46">
            <path d="M2.22549368,8.45949086 L1.33364799,8.45949086 C0.841095203,8.45949086 0.71722269,8.75253981 1.04709515,9.10352604 L2.80328984,10.9721275 C2.97228568,11.1519401 3.24504936,11.1530575 3.41486693,10.9721275 L5.16870266,9.10352604 C5.50254765,8.74783524 5.3782868,8.45949086 4.88350693,8.45949086 L3.99383136,8.45949086 L3.99383136,4.8997578 L2.22549368,4.8997578 L2.22549368,8.45949086 Z" id="arrow-copy-2" transform="translate(3.109284, 8.003582) rotate(90.000000) translate(-3.109284, -8.003582) "></path>
            <path d="M7.14550781,13.3608941 L6.20835796,13.3608941 C5.71448818,13.3608941 5.59160379,13.6535453 5.92393846,14.0040552 L7.69324162,15.8701206 C7.86349888,16.0496892 8.13836628,16.050805 8.30953618,15.8701206 L10.0773384,14.0040552 C10.413842,13.6488471 10.2872572,13.3608941 9.79740916,13.3608941 L8.88709852,13.3608941 L8.88709852,9.78244356 L7.14550781,9.78244356 L7.14550781,13.3608941 Z" id="arrow-copy-3" transform="translate(8.001737, 12.893830) rotate(0.000000) translate(-8.001737, -12.893830) "></path>
            <path d="M7.14550781,3.5831156 L6.20835796,3.5831156 C5.71448818,3.5831156 5.59160379,3.87576682 5.92393846,4.2262767 L7.69324162,6.09234215 C7.86349888,6.27191069 8.13836628,6.27302652 8.30953618,6.09234215 L10.0773384,4.2262767 C10.413842,3.87106863 10.2872572,3.5831156 9.79740916,3.5831156 L8.88709852,3.5831156 L8.88709852,0.00466508155 L7.14550781,0.00466508155 L7.14550781,3.5831156 Z" id="arrow-copy-5" transform="translate(8.001737, 3.116051) rotate(-0.000000) translate(-8.001737, -3.116051) "></path>
            <path d="M12.0032708,8.45949087 L11.1114251,8.45949087 C10.6188723,8.45949087 10.4949998,8.75253981 10.8248723,9.10352604 L12.5810669,10.9721276 C12.7500628,11.1519401 13.0228264,11.1530575 13.192644,10.9721276 L14.9464797,9.10352604 C15.2803247,8.74783524 15.1560639,8.45949087 14.661284,8.45949087 L13.7716084,8.45949087 L13.7716084,4.8997578 L12.0032708,4.8997578 L12.0032708,8.45949087 Z" id="arrow-copy-4" transform="translate(12.887061, 8.003582) rotate(90.000000) translate(-12.887061, -8.003582) "></path>
        </g>
    </g>
</svg>