<?xml version="1.0" encoding="UTF-8" standalone="no"?>
<svg width="16px" height="16px" viewBox="0 0 16 16" version="1.1" xmlns="http://www.w3.org/2000/svg" xmlns:xlink="http://www.w3.org/1999/xlink">
    <!-- Generator: Sketch 3.6.1 (26313) - http://www.bohemiancoding.com/sketch -->
    <title>export</title>
    <desc>Created with Sketch.</desc>
    <defs></defs>
    <g id="buffer-web" stroke="none" stroke-width="1" fill="none" fill-rule="evenodd">
        <g id="export" fill="#000000">
            <path d="M0,8.99810135 C0,7.89458045 0.887729645,7 2,7 L2.9906311,7 C3.54809015,7 4,7.44386482 4,8 L4,8 C4,8.55228475 3.55613518,9 3,9 L2.24523926,9 C2.10979736,9 2,9.11539841 2,9.25021791 L2,12.7497821 C2,12.8879736 2.10374069,13 2.25063705,13 L13.7493629,13 C13.887786,13 14,12.8846016 14,12.7497821 L14,9.25021791 C14,9.11202638 13.8924713,9 13.7547607,9 L13,9 C12.4477153,9 12,8.55613518 12,8 L12,8 C12,7.44771525 12.4433532,7 13.0093689,7 L14,7 C15.1045695,7 16,7.88670635 16,8.99810135 L16,13.0018986 C16,14.1054196 15.1054862,15 14.0059397,15 L1.99406028,15 C0.892771196,15 0,14.1132936 0,13.0018986 L0,8.99810135 Z M7,5 L4.99895656,5 C4.44724809,5 4.31387329,4.68612671 4.70591205,4.29408795 L7.29408795,1.70591205 C7.68395241,1.31604759 8.31387329,1.31387329 8.70591205,1.70591205 L11.2940879,4.29408795 C11.6839524,4.68395241 11.5573397,5 11.0010434,5 L9,5 L9,10.009222 C9,10.5564136 8.55613518,11 8,11 L8,11 C7.44771525,11 7,10.5490248 7,10.009222 L7,5 Z" id="icon-export"></path>
        </g>
    </g>
</svg>