<?xml version="1.0" encoding="UTF-8" standalone="no"?>
<svg width="128px" height="127px" viewBox="0 0 128 127" version="1.1" xmlns="http://www.w3.org/2000/svg" xmlns:xlink="http://www.w3.org/1999/xlink" xmlns:sketch="http://www.bohemiancoding.com/sketch/ns">
    <!-- Generator: Sketch 3.3.3 (12072) - http://www.bohemiancoding.com/sketch -->
    <title>Oval 1 + Path 1</title>
    <desc>Created with Sketch.</desc>
    <defs></defs>
    <g id="Page-1" stroke="none" stroke-width="1" fill="none" fill-rule="evenodd" sketch:type="MSPage">
        <g id="Artboard-1" sketch:type="MSArtboardGroup">
            <g id="Oval-1-+-Path-1" sketch:type="MSLayerGroup" transform="translate(0.000000, -1.000000)">
                <circle id="Oval-1" fill="#39579A" sketch:type="MSShapeGroup" cx="64" cy="64" r="64"></circle>
                <path d="M68.9213324,55.8049141 L80.2901213,55.8049141 L78.7957151,67.2264526 L68.9349331,67.2264526 L68.9349331,96.8668148 L56.9680855,96.8668148 L56.9680855,67.2633037 L47,67.2633037 L47,55.7320035 L56.9249693,55.7320035 L56.9249693,47.3421847 C56.9249693,47.3421847 57.0118592,44.1113421 57.7156077,41.5637899 C58.3758051,39.1738917 59.6166862,37.497729 60.7247601,36.3451649 C61.7667691,35.2613183 63.6556879,33.7358205 65.6173303,33.0397053 C68.5824055,31.9875084 71.6438016,32.0323771 71.6438016,32.0323771 C71.6438016,32.0323771 74.6791769,31.9595287 76.1957346,32.0323771 C77.6926067,32.1042798 80.6840909,32.4666306 80.6840909,32.4666306 L80.6840909,42.7536984 L74.5863379,42.7536984 C74.5863379,42.7536984 68.9989094,42.2278566 68.9989089,47.2878288 C68.9989083,52.3478011 68.9213324,55.8049141 68.9213324,55.8049141 Z" id="Path-1" fill="#FFFFFF" sketch:type="MSShapeGroup"></path>
            </g>
        </g>
    </g>
</svg>