<?xml version="1.0" encoding="UTF-8" standalone="no"?>
<svg width="127px" height="128px" viewBox="0 0 127 128" version="1.1" xmlns="http://www.w3.org/2000/svg" xmlns:xlink="http://www.w3.org/1999/xlink" xmlns:sketch="http://www.bohemiancoding.com/sketch/ns">
    <!-- Generator: Sketch 3.3.3 (12072) - http://www.bohemiancoding.com/sketch -->
    <title>Oval 1 Copy 2 + button</title>
    <desc>Created with Sketch.</desc>
    <defs></defs>
    <g id="Page-1" stroke="none" stroke-width="1" fill="none" fill-rule="evenodd" sketch:type="MSPage">
        <g id="Artboard-1-Copy-2" sketch:type="MSArtboardGroup" transform="translate(-1.000000, 0.000000)">
            <g id="Oval-1-Copy-2-+-button" sketch:type="MSLayerGroup" transform="translate(1.000000, 0.000000)">
                <circle id="Oval-1-Copy-2" fill="#DF4A32" sketch:type="MSShapeGroup" cx="64" cy="64" r="64"></circle>
                <g id="button" transform="translate(22.000000, 38.000000)" fill="#FFFFFF" sketch:type="MSShapeGroup">
                    <path d="M26,22.2857143 L26,31.2 L40.7457143,31.2 C40.1514286,35.0257143 36.2885714,42.4171429 26,42.4171429 C17.1228571,42.4171429 9.88,35.0628571 9.88,26 C9.88,16.9371429 17.1228571,9.58285714 26,9.58285714 C31.0514286,9.58285714 34.4314286,11.7371429 36.3628571,13.5942857 L43.42,6.79714286 C38.8885714,2.56285714 33.02,0 26,0 C11.6257143,0 0,11.6257143 0,26 C0,40.3742857 11.6257143,52 26,52 C41.0057143,52 50.96,41.4514286 50.96,26.5942857 C50.96,24.8857143 50.7742857,23.5857143 50.5514286,22.2857143 L26,22.2857143 L26,22.2857143 Z" id="Shape"></path>
                    <path d="M81.4285714,22.1904762 L74.0952381,22.1904762 L74.0952381,14.8571429 L66.7619048,14.8571429 L66.7619048,22.1904762 L59.4285714,22.1904762 L59.4285714,29.5238095 L66.7619048,29.5238095 L66.7619048,36.8571429 L74.0952381,36.8571429 L74.0952381,29.5238095 L81.4285714,29.5238095" id="Shape"></path>
                </g>
            </g>
        </g>
    </g>
</svg>