<?xml version="1.0" encoding="UTF-8" standalone="no"?>
<svg width="16px" height="16px" viewBox="0 0 16 16" version="1.1" xmlns="http://www.w3.org/2000/svg" xmlns:xlink="http://www.w3.org/1999/xlink">
    <!-- Generator: Sketch 3.6.1 (26313) - http://www.bohemiancoding.com/sketch -->
    <title>icon-circle-google-plus</title>
    <desc>Created with Sketch.</desc>
    <defs></defs>
    <g id="Style-Guide-/-Assets" stroke="none" stroke-width="1" fill="none" fill-rule="evenodd">
        <g id="Elements" transform="translate(-251.000000, -1057.000000)" fill="#323B43">
            <g id="Icons" transform="translate(27.000000, 840.000000)">
                <g id="UI-Icons">
                    <path d="M224,225 C224,220.581722 227.590712,217 232,217 C236.418278,217 240,220.590712 240,225 C240,229.418278 236.409288,233 232,233 C227.581722,233 224,229.409288 224,225 Z M230.561224,224.571429 L230.561224,225.6 L232.297376,225.6 C232.227405,226.041429 231.772595,226.894286 230.561224,226.894286 C229.516035,226.894286 228.663265,226.045714 228.663265,225 C228.663265,223.954286 229.516035,223.105714 230.561224,223.105714 C231.155977,223.105714 231.553936,223.354286 231.781341,223.568571 L232.612245,222.784286 C232.078717,222.295714 231.387755,222 230.561224,222 C228.868805,222 227.5,223.341429 227.5,225 C227.5,226.658571 228.868805,228 230.561224,228 C232.327988,228 233.5,226.782857 233.5,225.068571 C233.5,224.871429 233.478134,224.721429 233.451895,224.571429 L230.561224,224.571429 Z M236.5,224.666667 L235.833333,224.666667 L235.833333,224 L235.166667,224 L235.166667,224.666667 L234.5,224.666667 L234.5,225.333333 L235.166667,225.333333 L235.166667,226 L235.833333,226 L235.833333,225.333333 L236.5,225.333333 L236.5,224.666667 Z" id="icon-circle-google-plus"></path>
                </g>
            </g>
        </g>
    </g>
</svg>