<?xml version="1.0" encoding="UTF-8"?>
<svg width="30px" height="30px" viewBox="0 0 30 30" version="1.1" xmlns="http://www.w3.org/2000/svg" xmlns:xlink="http://www.w3.org/1999/xlink">
    <!-- Generator: Sketch 44.1 (41455) - http://www.bohemiancoding.com/sketch -->
    <title>Icon notification</title>
    <desc>Created with Sketch.</desc>
    <defs>
        <circle id="path-1" cx="10" cy="10" r="10"></circle>
    </defs>
    <g id="icons" stroke="none" stroke-width="1" fill="none" fill-rule="evenodd">
        <g id="Icon-notification">
            <g id="icon-notification" transform="translate(5.000000, 5.000000)">
                <g id="Oval">
                    <use fill="#FFFFFF" fill-rule="evenodd" xlink:href="#path-1"></use>
                    <circle stroke="#CED7DF" stroke-width="1" cx="10" cy="10" r="9.5"></circle>
                </g>
                <path d="M10,15 C9.44771525,15 9,14.5522847 9,14 C9,13.4477153 9.44771525,13 10,13 C10.5522847,13 11,13.4477153 11,14 C11,14.5522847 10.5522847,15 10,15 Z M9.21479527,5 L10.7852047,5 L10.7852047,5 C10.8956617,5 10.9852047,5.08954305 10.9852047,5.2 C10.9852047,5.20475433 10.9850352,5.20950716 10.9846965,5.21424941 L10.5132679,11.8142494 L10.5132679,11.8142494 C10.5057921,11.9189105 10.4187039,12 10.3137762,12 L9.68622384,12 L9.68622384,12 C9.58129611,12 9.49420789,11.9189105 9.4867321,11.8142494 L9.01530353,5.21424941 L9.01530353,5.21424941 C9.0074338,5.10407316 9.09036961,5.00837799 9.20054586,5.00050826 C9.20528811,5.00016953 9.21004093,5 9.21479527,5 L9.21479527,5 Z" id="Oval-Copy" fill="#343E46"></path>
            </g>
        </g>
    </g>
</svg>