<?xml version="1.0" encoding="UTF-8"?>
<svg width="30px" height="30px" viewBox="0 0 30 30" version="1.1" xmlns="http://www.w3.org/2000/svg" xmlns:xlink="http://www.w3.org/1999/xlink">
    <!-- Generator: Sketch 44.1 (41455) - http://www.bohemiancoding.com/sketch -->
    <title>Icon warning</title>
    <desc>Created with Sketch.</desc>
    <defs></defs>
    <g id="icons" stroke="none" stroke-width="1" fill="none" fill-rule="evenodd">
        <g id="Icon-warning">
            <g id="icon-warning" transform="translate(5.000000, 5.000000)">
                <path d="M9.08558574,0.398350095 C9.59032827,-0.588459734 10.4083955,-0.589011321 10.9134201,0.398350095 L20.0255344,18.2132227 C20.5302769,19.2000326 20.0409426,20 18.9397535,20 L1.05925234,20 C-0.0451503962,20 -0.531553175,19.2005842 -0.026528513,18.2132227 L9.08558574,0.398350095 Z" id="Triangle-1" fill="#FF1E1E"></path>
                <path d="M10,17 C9.44771525,17 9,16.5522847 9,16 C9,15.4477153 9.44771525,15 10,15 C10.5522847,15 11,15.4477153 11,16 C11,16.5522847 10.5522847,17 10,17 Z M9.21479527,7 L10.7852047,7 L10.7852047,7 C10.8956617,7 10.9852047,7.08954305 10.9852047,7.2 C10.9852047,7.20475433 10.9850352,7.20950716 10.9846965,7.21424941 L10.5132679,13.8142494 L10.5132679,13.8142494 C10.5057921,13.9189105 10.4187039,14 10.3137762,14 L9.68622384,14 L9.68622384,14 C9.58129611,14 9.49420789,13.9189105 9.4867321,13.8142494 L9.01530353,7.21424941 L9.01530353,7.21424941 C9.0074338,7.10407316 9.09036961,7.00837799 9.20054586,7.00050826 C9.20528811,7.00016953 9.21004093,7 9.21479527,7 L9.21479527,7 Z" id="Oval" fill="#FFFFFF"></path>
            </g>
        </g>
    </g>
</svg>