<?xml version="1.0" encoding="UTF-8" standalone="no"?>
<svg width="128px" height="128px" viewBox="0 0 128 128" version="1.1" xmlns="http://www.w3.org/2000/svg" xmlns:xlink="http://www.w3.org/1999/xlink" xmlns:sketch="http://www.bohemiancoding.com/sketch/ns">
    <!-- Generator: Sketch 3.4.4 (17249) - http://www.bohemiancoding.com/sketch -->
    <title>Network</title>
    <desc>Created with Sketch.</desc>
    <defs></defs>
    <g id="Page-1" stroke="none" stroke-width="1" fill="none" fill-rule="evenodd" sketch:type="MSPage">
        <g id="Network" sketch:type="MSLayerGroup">
            <circle id="Network-BG" fill="#007BB6" sketch:type="MSShapeGroup" cx="64" cy="64" r="64"></circle>
            <path d="M51.1003437,93.1717682 L37.3818576,93.1717682 L37.3818576,51.8986964 L51.1003437,51.8986964 L51.1003437,93.1717682 L51.1003437,93.1717682 Z M44.2420195,46.2606099 L44.1501341,46.2606099 C39.5485147,46.2606099 36.5714286,43.0905645 36.5714286,39.1303049 C36.5714286,35.0818354 39.6404,32 44.3320672,32 C49.025572,32 51.9126104,35.0818354 52.0044958,39.1303049 C52.0044958,43.0905645 49.0237343,46.2606099 44.2420195,46.2606099 L44.2420195,46.2606099 Z M100.569591,93.1717682 L86.8511047,93.1717682 L86.8511047,71.0862 C86.8511047,65.5399989 84.8663806,61.7543215 79.9027328,61.7543215 C76.11338,61.7543215 73.8566752,64.3068971 72.8624755,66.7731006 C72.5004471,67.6533624 72.4122372,68.8846264 72.4122372,70.1195658 L72.4122372,93.1699305 L58.693751,93.1699305 C58.693751,93.1699305 58.8738463,55.7652329 58.693751,51.8968587 L72.4122372,51.8968587 L72.4122372,57.7389307 C74.235243,54.9272383 77.495336,50.9228737 84.7781707,50.9228737 C93.803152,50.9228737 100.571429,56.8237524 100.571429,69.5020961 L100.571429,93.1717682 L100.569591,93.1717682 Z" id="Shape" fill="#FFFFFF" sketch:type="MSShapeGroup"></path>
        </g>
    </g>
</svg>