<?xml version="1.0" encoding="UTF-8"?>
<svg width="16px" height="16px" viewBox="0 0 16 16" version="1.1" xmlns="http://www.w3.org/2000/svg" xmlns:xlink="http://www.w3.org/1999/xlink">
    <!-- Generator: Sketch 41.1 (35376) - http://www.bohemiancoding.com/sketch -->
    <title>lock</title>
    <desc>Created with Sketch.</desc>
    <defs></defs>
    <g id="buffer-web" stroke="none" stroke-width="1" fill="none" fill-rule="evenodd">
        <g id="lock" fill="#000000">
            <path d="M13,7 L13,4.99668583 C13,2.24157855 10.7614237,0 8,0 C5.24419519,0 3,2.23709245 3,4.99668583 L3,7 L2.00684547,7 C1.44994876,7 1,7.44661595 1,7.99754465 L1,15.0026639 C1,15.5468246 1.45078007,16 2.00684547,16 L13.9931545,16 C14.5500512,16 15,15.5534774 15,15.0026639 L15,7.99754465 C15,7.4463114 14.5492199,7 13.9931545,7 L13,7 Z M5,7 L5,4.99668583 C5,3.34424456 6.34618032,2 8,2 C9.6553241,2 11,3.34461797 11,4.99668583 L11,7 L5,7 Z" id="icon-lock"></path>
        </g>
    </g>
</svg>