<svg width="16" height="16" viewBox="0 0 16 16" fill="none" xmlns="http://www.w3.org/2000/svg">
<g clip-path="url(#clip0_1595_24916)">
<path fill-rule="evenodd" clip-rule="evenodd" d="M11.1909 12.1951C13.2058 11.9557 14.9602 10.7205 15.1807 9.59184C15.5281 7.8139 15.4994 5.25306 15.4994 5.25306C15.4994 1.78217 13.2139 0.764795 13.2139 0.764795C12.0615 0.23818 10.0826 0.0167234 8.02678 0H7.97627C5.92041 0.0167234 3.94286 0.23818 2.79039 0.764795C2.79039 0.764795 0.504754 1.78217 0.504754 5.25306C0.504754 5.46347 0.503661 5.68479 0.502523 5.91519C0.499363 6.55506 0.495857 7.26497 0.514458 8.00596C0.597459 11.4003 1.13991 14.7456 4.2941 15.5762C5.74843 15.9592 6.99707 16.0394 8.0027 15.9844C9.82637 15.8838 10.8501 15.3369 10.8501 15.3369L10.79 14.0204C10.79 14.0204 9.48674 14.4292 8.02314 14.3794C6.57306 14.3299 5.04223 14.2238 4.8077 12.4524C4.78604 12.2968 4.77521 12.1304 4.77521 11.9557C4.77521 11.9557 6.19869 12.3019 8.0027 12.3841C9.10579 12.4345 10.1403 12.3198 11.1909 12.1951ZM12.8035 9.72499V5.52232C12.8035 4.66339 12.5837 3.98083 12.1422 3.47585C11.6869 2.97087 11.0906 2.71201 10.3505 2.71201C9.49411 2.71201 8.84561 3.03949 8.41692 3.69455L8.00001 4.38978L7.58319 3.69455C7.15441 3.03949 6.50591 2.71201 5.64957 2.71201C4.90941 2.71201 4.31316 2.97087 3.85787 3.47585C3.41636 3.98083 3.19655 4.66339 3.19655 5.52232V9.72499H4.86999V5.64585C4.86999 4.78597 5.23362 4.34952 5.96095 4.34952C6.76514 4.34952 7.16827 4.86726 7.16827 5.89101V8.12376H8.83183V5.89101C8.83183 4.86726 9.23488 4.34952 10.0391 4.34952C10.7664 4.34952 11.13 4.78597 11.13 5.64585V9.72499H12.8035Z" fill="black"/>
</g>
<defs>
<clipPath id="clip0_1595_24916">
<rect width="16" height="16" fill="white"/>
</clipPath>
</defs>
</svg>
