<?xml version="1.0" encoding="UTF-8" standalone="no"?>
<svg width="16px" height="16px" viewBox="0 0 16 16" version="1.1" xmlns="http://www.w3.org/2000/svg" xmlns:xlink="http://www.w3.org/1999/xlink">
    <!-- Generator: Sketch 39.1 (31720) - http://www.bohemiancoding.com/sketch -->
    <title>more</title>
    <desc>Created with Sketch.</desc>
    <defs></defs>
    <g id="buffer-web" stroke="none" stroke-width="1" fill="none" fill-rule="evenodd">
        <g id="more" fill="#000000">
            <g id="icon-more" transform="translate(0.000000, 6.000000)">
                <path d="M2,4 C3.1045695,4 4,3.1045695 4,2 C4,0.8954305 3.1045695,0 2,0 C0.8954305,0 0,0.8954305 0,2 C0,3.1045695 0.8954305,4 2,4 Z M2,3 C2.55228475,3 3,2.55228475 3,2 C3,1.44771525 2.55228475,1 2,1 C1.44771525,1 1,1.44771525 1,2 C1,2.55228475 1.44771525,3 2,3 Z" id="circle-1"></path>
                <path d="M8,4 C9.1045695,4 10,3.1045695 10,2 C10,0.8954305 9.1045695,0 8,0 C6.8954305,0 6,0.8954305 6,2 C6,3.1045695 6.8954305,4 8,4 Z M8,3 C8.55228475,3 9,2.55228475 9,2 C9,1.44771525 8.55228475,1 8,1 C7.44771525,1 7,1.44771525 7,2 C7,2.55228475 7.44771525,3 8,3 Z" id="circle-2"></path>
                <path d="M14,4 C15.1045695,4 16,3.1045695 16,2 C16,0.8954305 15.1045695,0 14,0 C12.8954305,0 12,0.8954305 12,2 C12,3.1045695 12.8954305,4 14,4 Z M14,3 C14.5522847,3 15,2.55228475 15,2 C15,1.44771525 14.5522847,1 14,1 C13.4477153,1 13,1.44771525 13,2 C13,2.55228475 13.4477153,3 14,3 Z" id="circle-3"></path>
            </g>
        </g>
    </g>
</svg>