<?xml version="1.0" encoding="UTF-8"?>
<svg width="16px" height="14px" viewBox="0 0 16 14" version="1.1" xmlns="http://www.w3.org/2000/svg" xmlns:xlink="http://www.w3.org/1999/xlink">
    <!-- Generator: Sketch 42 (36781) - http://www.bohemiancoding.com/sketch -->
    <title>Group</title>
    <desc>Created with Sketch.</desc>
    <defs></defs>
    <g id="Page-1" stroke="none" stroke-width="1" fill="none" fill-rule="evenodd">
        <g id="Artboard" transform="translate(0.000000, -1.000000)" fill-rule="nonzero" fill="#000000">
            <g id="Group" transform="translate(0.000000, 1.000000)">
                <path d="M10.0030683,3 L1.32719676,3 C0.598808254,3 0,3.5951808 0,4.32937352 L0,12.3372931 C0,13.0703241 0.594206228,13.6666667 1.32719676,13.6666667 L12.0061366,13.6666667 C12.7345251,13.6666667 13.3333333,13.0714859 13.3333333,12.3372931 L13.3333333,6.33135343 L13.3333333,8.33333333 L12,8.33333333 L12,12.3333333 L1.33333333,12.3333333 L1.33333333,4.33333333 L8,4.33333333 L8,3 L10.0030683,3 Z" id="Combined-Shape"></path>
                <rect id="Rectangle-5" x="12" y="0.333333333" width="1.33333333" height="6.66666667" rx="0.666666667"></rect>
                <rect id="Rectangle-6" x="9.33333333" y="3" width="6.66666667" height="1.33333333" rx="0.666666667"></rect>
            </g>
        </g>
    </g>
</svg>