<?xml version="1.0" encoding="UTF-8"?>
<svg width="30px" height="30px" viewBox="0 0 30 30" version="1.1" xmlns="http://www.w3.org/2000/svg" xmlns:xlink="http://www.w3.org/1999/xlink">
    <!-- Generator: Sketch 44.1 (41455) - http://www.bohemiancoding.com/sketch -->
    <title>Icon notification close</title>
    <desc>Created with Sketch.</desc>
    <defs>
        <circle id="path-1" cx="10" cy="10" r="10"></circle>
    </defs>
    <g id="icons" stroke="none" stroke-width="1" fill="none" fill-rule="evenodd">
        <g id="Icon-notification-close">
            <g id="icon-notification-close" transform="translate(5.000000, 5.000000)">
                <g id="Oval">
                    <use fill="#FFFFFF" fill-rule="evenodd" xlink:href="#path-1"></use>
                    <circle stroke="#343E46" stroke-width="1" cx="10" cy="10" r="9.5"></circle>
                </g>
                <path d="M9.49069901,10.865699 L5.36569901,10.865699 L5.36569901,10.865699 C4.98600324,10.865699 4.67819901,10.5578948 4.67819901,10.178199 L4.67819901,10.178199 L4.67819901,10.178199 C4.67819901,9.79850324 4.98600324,9.49069901 5.36569901,9.49069901 L9.49069901,9.49069901 L9.49069901,5.36569901 L9.49069901,5.36569901 C9.49069901,4.98600324 9.79850324,4.67819901 10.178199,4.67819901 L10.178199,4.67819901 L10.178199,4.67819901 C10.5578948,4.67819901 10.865699,4.98600324 10.865699,5.36569901 L10.865699,9.49069901 L14.990699,9.49069901 L14.990699,9.49069901 C15.3703948,9.49069901 15.678199,9.79850324 15.678199,10.178199 L15.678199,10.178199 L15.678199,10.178199 C15.678199,10.5578948 15.3703948,10.865699 14.990699,10.865699 L10.865699,10.865699 L10.865699,14.990699 L10.865699,14.990699 C10.865699,15.3703948 10.5578948,15.678199 10.178199,15.678199 L10.178199,15.678199 L10.178199,15.678199 C9.79850324,15.678199 9.49069901,15.3703948 9.49069901,14.990699 L9.49069901,10.865699 Z" id="icon-plus" fill="#343E46" transform="translate(10.178199, 10.178199) rotate(-315.000000) translate(-10.178199, -10.178199) "></path>
            </g>
        </g>
    </g>
</svg>