<?xml version="1.0" encoding="UTF-8" standalone="no"?>
<svg width="16px" height="16px" viewBox="0 0 16 16" version="1.1" xmlns="http://www.w3.org/2000/svg" xmlns:xlink="http://www.w3.org/1999/xlink">
    <!-- Generator: Sketch 39.1 (31720) - http://www.bohemiancoding.com/sketch -->
    <title>persons</title>
    <desc>Created with Sketch.</desc>
    <defs></defs>
    <g id="buffer-web" stroke="none" stroke-width="1" fill="none" fill-rule="evenodd">
        <g id="persons" fill="#000000">
            <path d="M7.5,9.77239239 C7.18722107,9.91979437 6.85063542,10 6.5,10 C4.84314575,10 3.5,8.209139 3.5,6 C3.5,3.790861 4.84314575,2 6.5,2 C6.85063542,2 7.18722107,2.08020563 7.5,2.22760761 C6.33480763,2.77672282 5.5,4.2583749 5.5,6 C5.5,7.7416251 6.33480763,9.22327718 7.5,9.77239239 Z M7.5,11 L1.99554521,11 C1.17955446,11 0.5,11.6715729 0.5,12.5 L0.5,14 L7.5,14 L2.5,14 L2.5,12.5 C2.5,11.6715729 3.17955446,11 3.99554521,11 L7.5,11 Z" id="icon-person-1"></path>
            <path d="M9.5,10 C11.1568542,10 12.5,8.209139 12.5,6 C12.5,3.790861 11.1568542,2 9.5,2 C7.84314575,2 6.5,3.790861 6.5,6 C6.5,8.209139 7.84314575,10 9.5,10 Z M3.5,12.5 C3.5,11.6715729 4.17955446,11 4.99554521,11 L14.0044548,11 C14.8304216,11 15.5,11.6657972 15.5,12.5 L15.5,14 L3.5,14 L3.5,12.5 Z" id="icon-person-2"></path>
        </g>
    </g>
</svg>