<?xml version="1.0" encoding="UTF-8" standalone="no"?>
<svg width="128px" height="128px" viewBox="0 0 128 128" version="1.1" xmlns="http://www.w3.org/2000/svg" xmlns:xlink="http://www.w3.org/1999/xlink" xmlns:sketch="http://www.bohemiancoding.com/sketch/ns">
    <!-- Generator: Sketch 3.4.4 (17249) - http://www.bohemiancoding.com/sketch -->
    <title>Network</title>
    <desc>Created with Sketch.</desc>
    <defs></defs>
    <g id="Page-1" stroke="none" stroke-width="1" fill="none" fill-rule="evenodd" sketch:type="MSPage">
        <g id="Network" sketch:type="MSLayerGroup">
            <circle id="Network-BG" fill="#BE000F" sketch:type="MSShapeGroup" cx="64" cy="64" r="64"></circle>
            <path d="M67.6919962,36.5714286 C50.0420814,36.5714286 41.1428571,49.2256641 41.1428571,59.7781496 C41.1428571,66.1675689 43.5618915,71.8518664 48.7502518,73.9701202 C49.6010192,74.3179364 50.3630789,73.9820854 50.6098097,73.040135 C50.7814485,72.3882376 51.1874403,70.7436409 51.3685687,70.058736 C51.6173625,69.1271004 51.5208156,68.8003266 50.8342604,67.988343 C49.3381972,66.2236816 48.3822186,63.9391527 48.3822186,60.7031837 C48.3822186,51.3150364 55.4062064,42.9105116 66.6724782,42.9105116 C76.6485709,42.9105116 82.1294599,49.0061645 82.1294599,57.1470423 C82.1294599,67.8583761 77.3891758,76.8987073 70.351985,76.8987073 C66.4653564,76.8987073 63.5561613,73.6846057 64.4890347,69.7426896 C65.6055121,65.0366508 67.7687386,59.9576276 67.7687386,56.5607473 C67.7687386,53.5199349 66.1365196,50.983724 62.7582059,50.983724 C58.7853453,50.983724 55.5939364,55.0935656 55.5939364,60.5992102 C55.5939364,64.1058404 56.7789043,66.4774265 56.7789043,66.4774265 C56.7789043,66.4774265 52.7132102,83.703608 52.0006616,86.7200774 C50.5813408,92.7282606 51.7873509,100.093463 51.8892614,100.837369 C51.9490874,101.278018 52.515578,101.382817 52.772211,101.049854 C53.1385938,100.571659 57.8702134,94.7301632 59.4789146,88.8932062 C59.934005,87.2403575 62.0918678,78.6819354 62.0918678,78.6819354 C63.3824595,81.1438794 67.1547998,83.3124696 71.1664441,83.3124696 C83.1085437,83.3124696 91.2106377,72.425371 91.2106377,57.8525768 C91.2106377,46.8338609 81.8773654,36.5714286 67.6919962,36.5714286 L67.6919962,36.5714286 Z" id="Shape-4" fill="#FFFFFF" sketch:type="MSShapeGroup"></path>
        </g>
    </g>
</svg>