<?xml version="1.0" encoding="UTF-8" standalone="no"?>
<svg width="16px" height="16px" viewBox="0 0 16 16" version="1.1" xmlns="http://www.w3.org/2000/svg" xmlns:xlink="http://www.w3.org/1999/xlink">
    <!-- Generator: Sketch 39.1 (31720) - http://www.bohemiancoding.com/sketch -->
    <title>plus</title>
    <desc>Created with Sketch.</desc>
    <defs></defs>
    <g id="buffer-web" stroke="none" stroke-width="1" fill="none" fill-rule="evenodd">
        <g id="plus" fill="#000000">
            <path d="M7,9 L1.00292933,9 C0.449026756,9 0,8.55613518 0,8 L0,8 C0,7.44771525 0.437881351,7 1.00292933,7 L7,7 L7,1.00292933 C7,0.449026756 7.44386482,0 8,0 L8,0 C8.55228475,0 9,0.437881351 9,1.00292933 L9,7 L14.9970707,7 C15.5509732,7 16,7.44386482 16,8 L16,8 C16,8.55228475 15.5621186,9 14.9970707,9 L9,9 L9,14.9970707 C9,15.5509732 8.55613518,16 8,16 L8,16 C7.44771525,16 7,15.5621186 7,14.9970707 L7,9 Z" id="icon-plus"></path>
        </g>
    </g>
</svg>