<?xml version="1.0" encoding="UTF-8" standalone="no"?>
<svg width="16px" height="16px" viewBox="0 0 16 16" version="1.1" xmlns="http://www.w3.org/2000/svg" xmlns:xlink="http://www.w3.org/1999/xlink">
    <!-- Generator: Sketch 39.1 (31720) - http://www.bohemiancoding.com/sketch -->
    <title>pricing</title>
    <desc>Created with Sketch.</desc>
    <defs></defs>
    <g id="buffer-web" stroke="none" stroke-width="1" fill="none" fill-rule="evenodd">
        <g id="pricing" fill="#000000">
            <path d="M0.709946632,8.70994663 C0.317853934,8.31785393 0.323517799,7.6764822 0.709946632,7.29005337 L7.29005337,0.709946632 C7.68214607,0.317853934 8.45303631,-1.18191877e-15 8.99703014,-1.15172104e-15 L15.0029699,-8.18324413e-16 C15.5536144,-7.87757501e-16 16,0.453036308 16,0.997030139 L16,7.00296986 C16,7.5536144 15.6764822,8.3235178 15.2900534,8.70994663 L8.70994663,15.2900534 C8.31785393,15.6821461 7.6764822,15.6764822 7.29005337,15.2900534 L0.709946632,8.70994663 Z M2.75,8 L8.75,2 L14,2 L14,7.25 L8,13.25 L2.75,8 Z M11.5,6 C12.3284271,6 13,5.32842712 13,4.5 C13,3.67157288 12.3284271,3 11.5,3 C10.6715729,3 10,3.67157288 10,4.5 C10,5.32842712 10.6715729,6 11.5,6 Z" id="icon-pricing"></path>
        </g>
    </g>
</svg>