<?xml version="1.0" encoding="UTF-8"?>
<svg width="16px" height="16px" viewBox="0 0 16 16" version="1.1" xmlns="http://www.w3.org/2000/svg" xmlns:xlink="http://www.w3.org/1999/xlink">
    <!-- Generator: Sketch 41.1 (35376) - http://www.bohemiancoding.com/sketch -->
    <title>question</title>
    <desc>Created with Sketch.</desc>
    <defs></defs>
    <g id="buffer-web" stroke="none" stroke-width="1" fill="none" fill-rule="evenodd">
        <g id="question" fill="#000000">
            <g id="icon-support-question">
                <path d="M8,14.5 C11.5898509,14.5 14.5,11.5898509 14.5,8 C14.5,4.41014913 11.5898509,1.5 8,1.5 C4.41014913,1.5 1.5,4.41014913 1.5,8 C1.5,11.5898509 4.41014913,14.5 8,14.5 Z M8,16 C3.581722,16 0,12.418278 0,8 C0,3.581722 3.581722,0 8,0 C12.418278,0 16,3.581722 16,8 C16,12.418278 12.418278,16 8,16 Z" id="oval"></path>
                <path d="M8.75,9.48937988 C8.75,9.21450689 8.86501207,9.04017424 9.28915879,8.66400789 C9.32335919,8.6336763 9.46258697,8.51145018 9.49730441,8.48069736 C10.3522317,7.72339999 10.75,7.0815665 10.75,6 C10.75,4.45928727 9.52773396,3.25 8,3.25 C6.48121694,3.25 5.25,4.48121694 5.25,6 C5.25,6.41421356 5.58578644,6.75 6,6.75 C6.41421356,6.75 6.75,6.41421356 6.75,6 C6.75,5.30964406 7.30964406,4.75 8,4.75 C8.70287018,4.75 9.25,5.29132006 9.25,6 C9.25,6.56330045 9.0678035,6.85729024 8.50269559,7.35786465 C8.47143227,7.3855578 8.33175128,7.50818179 8.29387435,7.541774 C7.57784713,8.17680272 7.25,8.67374585 7.25,9.48937988 C7.25,9.90359345 7.58578644,10.2393799 8,10.2393799 C8.41421356,10.2393799 8.75,9.90359345 8.75,9.48937988 Z" id="line"></path>
                <circle id="oval" cx="8" cy="11.6875" r="0.9375"></circle>
            </g>
        </g>
    </g>
</svg>