<?xml version="1.0" encoding="UTF-8" standalone="no"?>
<svg width="16px" height="16px" viewBox="0 0 16 16" version="1.1" xmlns="http://www.w3.org/2000/svg" xmlns:xlink="http://www.w3.org/1999/xlink">
    <!-- Generator: Sketch 3.6.1 (26313) - http://www.bohemiancoding.com/sketch -->
    <title>refresh</title>
    <desc>Created with Sketch.</desc>
    <defs></defs>
    <g id="buffer-web" stroke="none" stroke-width="1" fill="none" fill-rule="evenodd">
        <g id="refresh" fill="#000000">
            <path d="M14.7101213,10 C13.8495721,12.8914889 11.1710206,15 8,15 C5.20760404,15 2.7970951,13.3649473 1.67363116,11 L3.99963381,11 C4.91184014,12.2144467 6.36418217,13 8,13 C10.050319,13 11.8123997,11.7659048 12.5839563,10 L14.7101213,10 Z M14.3263688,5 C13.2029049,2.63505267 10.792396,1 8,1 C4.82897936,1 2.15042787,3.10851105 1.28987868,6 L3.41604369,6 C4.18760031,4.23409522 5.94968096,3 8,3 C9.63581783,3 11.0881599,3.7855533 12.0003662,5 L14.3263688,5 Z M0.316626728,6.37995207 C0.141758615,6.17011034 0.21484375,6 0.497698784,6 L4.50230122,6 C4.77717266,6 4.85110044,6.17867947 4.68337327,6.37995207 L2.81662673,8.62004793 C2.64175861,8.82988966 2.35110044,8.82132053 2.18337327,8.62004793 L0.316626728,6.37995207 Z M11.3166267,9.62004793 C11.1417586,9.82988966 11.2148438,10 11.4976988,10 L15.5023012,10 C15.7771727,10 15.8511004,9.82132053 15.6833733,9.62004793 L13.8166267,7.37995207 C13.6417586,7.17011034 13.3511004,7.17867947 13.1833733,7.37995207 L11.3166267,9.62004793 Z" id="icon-refresh"></path>
        </g>
    </g>
</svg>