<?xml version="1.0" encoding="UTF-8" standalone="no"?>
<svg width="16px" height="16px" viewBox="0 0 16 16" version="1.1" xmlns="http://www.w3.org/2000/svg" xmlns:xlink="http://www.w3.org/1999/xlink">
    <!-- Generator: Sketch 3.6.1 (26313) - http://www.bohemiancoding.com/sketch -->
    <title>shuffle</title>
    <desc>Created with Sketch.</desc>
    <defs></defs>
    <g id="buffer-web" stroke="none" stroke-width="1" fill="none" fill-rule="evenodd">
        <g id="shuffle">
            <g id="icon-shuffle" transform="translate(1.000000, 1.000000)">
                <path d="M12,8.99077797 C12,8.44358641 12.3210526,8.32105255 12.7109581,8.71095812 L14.6440798,10.6440798 C14.8406491,10.8406491 14.838707,11.161293 14.6440798,11.3559202 L12.7109581,13.2890419 C12.3183068,13.6816932 12,13.5490248 12,13.009222 L12,8.99077797 Z" id="arrow-head-1" fill="#000000"></path>
                <path d="M12,0.990777969 C12,0.443586406 12.3210526,0.321052551 12.7109581,0.710958123 L14.6440798,2.6440798 C14.8406491,2.8406491 14.838707,3.16129303 14.6440798,3.3559202 L12.7109581,5.28904188 C12.3183068,5.68169321 12,5.54902482 12,5.00922203 L12,0.990777969 Z" id="arrow-head-2" fill="#000000"></path>
                <path d="M12,3.00109863 L10,3 L2,11 L0,11" id="arrow-1" stroke="#000000" stroke-width="2" stroke-linecap="round" stroke-linejoin="round" transform="translate(6.000000, 7.000000) scale(1, -1) translate(-6.000000, -7.000000) "></path>
                <path d="M8.5,4.5 L10,3 L13,3" id="arrow-2-top" stroke="#000000" stroke-width="2" stroke-linecap="round" stroke-linejoin="round"></path>
                <path d="M0,11 L2,11 L3.5,9.5" id="arrow-2-bottom" stroke="#000000" stroke-width="2" stroke-linecap="round" stroke-linejoin="round"></path>
            </g>
        </g>
    </g>
</svg>