<svg width="16" height="16" viewBox="0 0 16 16" fill="none" xmlns="http://www.w3.org/2000/svg">
<path fill-rule="evenodd" clip-rule="evenodd" d="M2.16667 0C1.52233 0 1 0.511675 1 1.14286V14.8571C1 15.4883 1.52233 16 2.16667 16H13.8333C14.4777 16 15 15.4883 15 14.8571V1.14286C15 0.511675 14.4777 0 13.8333 0H2.16667ZM8 1.71429C6.71133 1.71429 5.66667 2.73764 5.66667 4C5.66667 5.26237 6.71133 6.28571 8 6.28571C9.28866 6.28571 10.3333 5.26237 10.3333 4C10.3333 2.73764 9.28866 1.71429 8 1.71429ZM2.55553 9.14286C2.55553 8.51167 3.07787 8 3.7222 8H12.2778C12.9221 8 13.4444 8.51167 13.4444 9.14286C13.4444 9.77404 12.9221 10.2857 12.2778 10.2857H3.7222C3.07786 10.2857 2.55553 9.77404 2.55553 9.14286ZM3.7222 11.4286C3.07787 11.4286 2.55553 11.9402 2.55553 12.5714C2.55553 13.2026 3.07786 13.7143 3.7222 13.7143H12.2778C12.9221 13.7143 13.4444 13.2026 13.4444 12.5714C13.4444 11.9402 12.9221 11.4286 12.2778 11.4286H3.7222Z" fill="black"/>
</svg>
