<?xml version="1.0" encoding="UTF-8" standalone="no"?>
<svg width="16px" height="16px" viewBox="0 0 16 16" version="1.1" xmlns="http://www.w3.org/2000/svg" xmlns:xlink="http://www.w3.org/1999/xlink">
    <!-- Generator: Sketch 39.1 (31720) - http://www.bohemiancoding.com/sketch -->
    <title>support</title>
    <desc>Created with Sketch.</desc>
    <defs></defs>
    <g id="buffer-web" stroke="none" stroke-width="1" fill="none" fill-rule="evenodd">
        <g id="support" fill="#000000">
            <path d="M13.5769462,0.323218319 C13.0930765,0.115199686 12.559976,2.22044605e-16 12,2.22044605e-16 C9.790861,2.22044605e-16 8,1.79291 8,4.00457656 C8,4.55616047 8.11138988,5.08169812 8.31287775,5.55987323 L0.428613784,13.4441372 C-0.146964313,14.0197153 -0.150961847,14.9734603 0.434824591,15.5592467 C1.02469502,16.1491172 1.96757782,16.1478138 2.54993413,15.5654575 L10.427534,7.68785764 C10.9102135,7.89466322 11.4417517,8.00915312 12,8.00915312 C14.209139,8.00915312 16,6.21624313 16,4.00457656 C16,3.44468369 15.8852289,2.9116277 15.6779554,2.42770277 C15.6386374,2.47931841 15.5955069,2.5287966 15.5485763,2.5757272 L14.8257268,3.29857669 C14.243394,3.88090952 13.3005302,3.88219382 12.7106598,3.29232339 C12.1248734,2.70653695 12.1303527,1.75131015 12.7044065,1.17725634 L13.427256,0.454406852 C13.4748722,0.406790595 13.524899,0.363059242 13.5769462,0.323218319 Z" id="icon-support"></path>
        </g>
    </g>
</svg>