<?xml version="1.0" encoding="UTF-8" standalone="no"?>
<svg width="128px" height="128px" viewBox="0 0 128 128" version="1.1" xmlns="http://www.w3.org/2000/svg" xmlns:xlink="http://www.w3.org/1999/xlink" xmlns:sketch="http://www.bohemiancoding.com/sketch/ns">
    <!-- Generator: Sketch 3.3.3 (12072) - http://www.bohemiancoding.com/sketch -->
    <title>Oval 1 Copy + Shape 5</title>
    <desc>Created with Sketch.</desc>
    <defs></defs>
    <g id="Page-1" stroke="none" stroke-width="1" fill="none" fill-rule="evenodd" sketch:type="MSPage">
        <g id="Artboard-1-Copy" sketch:type="MSArtboardGroup">
            <g id="Oval-1-Copy-+-Shape-5" sketch:type="MSLayerGroup">
                <circle id="Oval-1-Copy" fill="#50ABF1" sketch:type="MSShapeGroup" cx="64" cy="64" r="64"></circle>
                <path d="M98.8137459,42.6198493 C96.2821009,43.742884 93.5608749,44.5015517 90.7054628,44.8428662 C93.6200544,43.0956939 95.8588984,40.3290511 96.9127757,37.032201 C94.1846684,38.6503482 91.163416,39.8249929 87.9474216,40.4580762 C85.3724241,37.7141418 81.7032935,36 77.6426147,36 C69.8460563,36 63.5245131,42.320855 63.5245131,50.1174135 C63.5245131,51.223933 63.6494094,52.3015508 63.8899123,53.3347841 C52.1565391,52.7460854 41.7540172,47.1254067 34.7911331,38.5839432 C33.5758884,40.6689893 32.8794968,43.0939736 32.8794968,45.6813575 C32.8794968,50.5794954 35.3719182,54.900633 39.160096,57.4322781 C36.8455572,57.3589918 34.6689893,56.7238441 32.7656106,55.6665262 C32.7642344,55.7253616 32.7642344,55.7845412 32.7642344,55.8440648 C32.7642344,62.6841169 37.6307181,68.3901242 44.0892,69.6872568 C42.9045772,70.0099917 41.6573343,70.1823692 40.3694915,70.1823692 C39.4594343,70.1823692 38.5751821,70.0935999 37.7129501,69.9291359 C39.5100121,75.5377722 44.7233155,79.6197832 50.9013827,79.7333253 C46.0696497,83.5201268 39.9824161,85.7768624 33.3677279,85.7768624 C32.228178,85.7768624 31.1044551,85.7101134 30,85.5793679 C36.2479128,89.5853401 43.6690941,91.9229313 51.6414708,91.9229313 C77.6092402,91.9229313 91.8095738,70.4104857 91.8095738,51.7541402 C91.8095738,51.142045 91.7958111,50.5333905 91.7686298,49.9274885 C94.5277032,47.9374049 96.9210333,45.4508326 98.8137459,42.6198493 L98.8137459,42.6198493 Z" id="Shape-5" fill="#FFFFFF" sketch:type="MSShapeGroup"></path>
            </g>
        </g>
    </g>
</svg>