<?xml version="1.0" encoding="UTF-8" standalone="no"?>
<svg width="16px" height="16px" viewBox="0 0 16 16" version="1.1" xmlns="http://www.w3.org/2000/svg" xmlns:xlink="http://www.w3.org/1999/xlink">
    <!-- Generator: Sketch 39.1 (31720) - http://www.bohemiancoding.com/sketch -->
    <title>warning</title>
    <desc>Created with Sketch.</desc>
    <defs></defs>
    <g id="buffer-web" stroke="none" stroke-width="1" fill="none" fill-rule="evenodd">
        <g id="warning" fill="#000000">
            <path d="M6.99633104,1.71524291 C7.55171489,0.764541799 8.44871889,0.758634169 9.00755388,1.71524291 L15.7626776,13.2786034 C16.3180615,14.2293045 15.8747362,15 14.7741359,15 L1.22974897,15 C0.128408626,15 -0.317627694,14.2352121 0.241207295,13.2786034 L6.99633104,1.71524291 Z M8.02680792,13.0088141 C8.64812827,13.0088141 9.15180792,12.5073541 9.15180792,11.888772 C9.15180792,11.2701898 8.64812827,10.7687299 8.02680792,10.7687299 C7.40548758,10.7687299 6.90180792,11.2701898 6.90180792,11.888772 C6.90180792,12.5073541 7.40548758,13.0088141 8.02680792,13.0088141 Z M6.71456248,6.30790166 C6.60573274,5.58556752 7.11021227,5 7.84208518,5 L8.19293243,5 C8.92447576,5 9.42852876,5.59058607 9.32045514,6.30790166 L8.87817389,9.24344898 C8.81705525,9.64911088 8.43461019,9.97796483 8.01750881,9.97796483 C7.60329524,9.97796483 7.21829921,9.65134666 7.15684372,9.24344898 L6.71456248,6.30790166 Z" id="ic"></path>
        </g>
    </g>
</svg>