<?xml version="1.0" encoding="UTF-8" standalone="no"?>
<svg width="16px" height="16px" viewBox="0 0 16 16" version="1.1" xmlns="http://www.w3.org/2000/svg" xmlns:xlink="http://www.w3.org/1999/xlink">
    <!-- Generator: Sketch 3.7 (28169) - http://www.bohemiancoding.com/sketch -->
    <title>warning</title>
    <desc>Created with Sketch.</desc>
    <defs></defs>
    <g id="buffer-web" stroke="none" stroke-width="1" fill="none" fill-rule="evenodd">
        <g id="warning" fill="#000000">
            <path d="M6.99452321,1.71524291 C7.54990706,0.764541799 8.44691106,0.758634169 9.00574605,1.71524291 L15.7608698,13.2786034 C16.3162536,14.2293045 15.8729284,15 14.7723281,15 L1.22794114,15 C0.126600797,15 -0.319435523,14.2352121 0.239399466,13.2786034 L6.99452321,1.71524291 Z M8.0250001,13.0088141 C8.64632044,13.0088141 9.1500001,12.5073541 9.1500001,11.888772 C9.1500001,11.2701898 8.64632044,10.7687299 8.0250001,10.7687299 C7.40367975,10.7687299 6.9000001,11.2701898 6.9000001,11.888772 C6.9000001,12.5073541 7.40367975,13.0088141 8.0250001,13.0088141 Z M6.71275465,6.30790166 C6.60392491,5.58556752 7.10840444,5 7.84027736,5 L8.1911246,5 C8.92266793,5 9.42672093,5.59058607 9.31864731,6.30790166 L8.87636606,9.24344898 C8.81524742,9.64911088 8.43280236,9.97796483 8.01570098,9.97796483 C7.60148742,9.97796483 7.21649138,9.65134666 7.1550359,9.24344898 L6.71275465,6.30790166 Z" id="Combined-Shape"></path>
        </g>
    </g>
</svg>