<?xml version="1.0" encoding="UTF-8" standalone="no"?>
<svg width="16px" height="16px" viewBox="0 0 16 16" version="1.1" xmlns="http://www.w3.org/2000/svg" xmlns:xlink="http://www.w3.org/1999/xlink">
    <!-- Generator: Sketch 3.6 (26304) - http://www.bohemiancoding.com/sketch -->
    <title>X</title>
    <desc>Created with Sketch.</desc>
    <defs></defs>
    <g id="Page-1" stroke="none" stroke-width="1" fill="none" fill-rule="evenodd">
        <g id="X" transform="translate(-4.000000, -4.000000)" fill="#323B43">
            <path d="M11.5,11.502299 L7.99490515,11.502299 C7.72040049,11.502299 7.49770104,11.7261566 7.49770104,12.002299 C7.49770104,12.2703654 7.72588621,12.502299 8.00736688,12.502299 L11.5,12.502299 L11.5,15.9903342 C11.5,16.2775269 11.7238576,16.5020495 12,16.5045776 C12.2680664,16.5070319 12.5,16.2865494 12.5,16.0119512 L12.5,12.502299 L15.9880352,12.502299 C16.2752279,12.502299 16.4997505,12.2784413 16.5022787,12.002299 C16.5047329,11.7342326 16.2842504,11.502299 16.0096522,11.502299 L12.5,11.502299 L12.5,7.99720411 C12.5,7.72269946 12.2761424,7.5 12,7.5 C11.7319336,7.5 11.5,7.72818517 11.5,8.00966585 L11.5,11.502299 Z M12,20 C16.418278,20 20,16.418278 20,12 C20,7.581722 16.418278,4 12,4 C7.581722,4 4,7.581722 4,12 C4,16.418278 7.581722,20 12,20 Z" id="BG" transform="translate(12.000000, 12.000000) rotate(-45.000000) translate(-12.000000, -12.000000) "></path>
        </g>
    </g>
</svg>