<svg width="16" height="16" viewBox="0 0 16 16" fill="none" xmlns="http://www.w3.org/2000/svg">
<path fill-rule="evenodd" clip-rule="evenodd" d="M15.8404 4.7653C15.8404 4.7653 15.6839 3.64557 15.2041 3.15233C14.5959 2.50526 13.9138 2.50219 13.6011 2.46428C11.3621 2.2998 8.00356 2.2998 8.00356 2.2998H7.99644C7.99644 2.2998 4.63804 2.2998 2.39893 2.46428C2.08622 2.50219 1.40444 2.50526 0.795911 3.15233C0.316089 3.64557 0.16 4.7653 0.16 4.7653C0.16 4.7653 0 6.0802 0 7.3951V8.62803C0 9.94274 0.16 11.2576 0.16 11.2576C0.16 11.2576 0.316089 12.3774 0.795911 12.8706C1.40444 13.5179 2.20391 13.4971 2.56 13.565C3.84018 13.6897 8 13.7284 8 13.7284C8 13.7284 11.3621 13.7231 13.6011 13.5588C13.9138 13.5209 14.5959 13.5179 15.2041 12.8706C15.6839 12.3774 15.8404 11.2576 15.8404 11.2576C15.8404 11.2576 16 9.94274 16 8.62803V7.3951C16 6.0802 15.8404 4.7653 15.8404 4.7653ZM6.34827 10.1217L6.34756 5.55626L10.6708 7.84682L6.34827 10.1217Z" fill="black"/>
</svg>
